<mxfile host="app.diagrams.net" modified="2023-05-31T16:44:49.528Z" agent="Mozilla/5.0 (Windows NT 10.0; Win64; x64) AppleWebKit/537.36 (KHTML, like Gecko) Chrome/113.0.0.0 Safari/537.36" etag="s05JHs6IkEXU5kYuM5DM" version="21.3.6" type="google">
  <diagram name="Page-1" id="58cdce13-f638-feb5-8d6f-7d28b1aa9fa0">
    <mxGraphModel grid="1" page="1" gridSize="10" guides="1" tooltips="1" connect="1" arrows="1" fold="1" pageScale="1" pageWidth="1100" pageHeight="850" background="none" math="0" shadow="0">
      <root>
        <mxCell id="0" />
        <mxCell id="1" parent="0" />
        <mxCell id="382b91b5511bd0f7-1" value="" style="ellipse;html=1;shape=startState;fillColor=#000000;strokeColor=#ff0000;rounded=1;shadow=0;comic=0;labelBackgroundColor=none;fontFamily=Verdana;fontSize=12;fontColor=#000000;align=center;direction=south;" vertex="1" parent="1">
          <mxGeometry x="180" y="60" width="30" height="30" as="geometry" />
        </mxCell>
        <mxCell id="2a3bc250acf0617d-9" value="order request&amp;nbsp;" style="edgeStyle=orthogonalEdgeStyle;html=1;labelBackgroundColor=none;endArrow=open;endSize=8;strokeColor=#ff0000;fontFamily=Verdana;fontSize=12;align=left;entryX=0.5;entryY=0;entryDx=0;entryDy=0;" edge="1" parent="1" source="382b91b5511bd0f7-1" target="e8tovBAfOXGoVViqZnMJ-12">
          <mxGeometry x="-0.5294" y="-15" relative="1" as="geometry">
            <mxPoint x="220" y="170" as="targetPoint" />
            <Array as="points">
              <mxPoint x="195" y="120" />
              <mxPoint x="210" y="120" />
            </Array>
            <mxPoint as="offset" />
          </mxGeometry>
        </mxCell>
        <mxCell id="e8tovBAfOXGoVViqZnMJ-12" value="Cart" style="swimlane;fontStyle=1;align=center;verticalAlign=middle;childLayout=stackLayout;horizontal=1;startSize=30;horizontalStack=0;resizeParent=0;resizeLast=1;container=0;fontColor=#000000;collapsible=0;rounded=1;arcSize=30;strokeColor=#ff0000;fillColor=#ffffc0;swimlaneFillColor=#ffffc0;dropTarget=0;" vertex="1" parent="1">
          <mxGeometry x="130" y="160" width="160" height="120" as="geometry" />
        </mxCell>
        <mxCell id="c0qtm4qSQ-M6oqFo8LH6-9" style="edgeStyle=orthogonalEdgeStyle;rounded=0;orthogonalLoop=1;jettySize=auto;html=1;exitX=0;exitY=0.5;exitDx=0;exitDy=0;" edge="1" parent="e8tovBAfOXGoVViqZnMJ-12" source="e8tovBAfOXGoVViqZnMJ-13" target="e8tovBAfOXGoVViqZnMJ-12">
          <mxGeometry relative="1" as="geometry">
            <Array as="points">
              <mxPoint x="-70" y="65" />
              <mxPoint x="-70" y="10" />
            </Array>
          </mxGeometry>
        </mxCell>
        <mxCell id="c0qtm4qSQ-M6oqFo8LH6-10" value="add products" style="edgeLabel;html=1;align=center;verticalAlign=middle;resizable=0;points=[];" connectable="0" vertex="1" parent="c0qtm4qSQ-M6oqFo8LH6-9">
          <mxGeometry x="0.3087" y="2" relative="1" as="geometry">
            <mxPoint as="offset" />
          </mxGeometry>
        </mxCell>
        <mxCell id="e8tovBAfOXGoVViqZnMJ-13" value="do/ empty the card&lt;br&gt;do/ add other product&lt;br&gt;do/remove product from card&lt;br&gt;exit/ proceed with checkout&lt;br&gt;exit/cancel order" style="text;html=1;strokeColor=none;fillColor=none;align=center;verticalAlign=middle;spacingLeft=4;spacingRight=4;whiteSpace=wrap;overflow=hidden;rotatable=0;fontColor=#000000;" vertex="1" parent="e8tovBAfOXGoVViqZnMJ-12">
          <mxGeometry y="30" width="160" height="90" as="geometry" />
        </mxCell>
        <mxCell id="c0qtm4qSQ-M6oqFo8LH6-11" style="edgeStyle=orthogonalEdgeStyle;rounded=0;orthogonalLoop=1;jettySize=auto;html=1;exitX=0;exitY=0.75;exitDx=0;exitDy=0;entryX=0.135;entryY=0.993;entryDx=0;entryDy=0;entryPerimeter=0;" edge="1" parent="e8tovBAfOXGoVViqZnMJ-12" source="e8tovBAfOXGoVViqZnMJ-13" target="e8tovBAfOXGoVViqZnMJ-13">
          <mxGeometry relative="1" as="geometry">
            <Array as="points">
              <mxPoint y="83" />
              <mxPoint x="-70" y="83" />
              <mxPoint x="-70" y="140" />
              <mxPoint x="20" y="140" />
              <mxPoint x="20" y="123" />
              <mxPoint x="22" y="123" />
            </Array>
          </mxGeometry>
        </mxCell>
        <mxCell id="c0qtm4qSQ-M6oqFo8LH6-12" value="remove a product from card&amp;nbsp;" style="edgeLabel;html=1;align=center;verticalAlign=middle;resizable=0;points=[];" connectable="0" vertex="1" parent="c0qtm4qSQ-M6oqFo8LH6-11">
          <mxGeometry x="0.0319" y="3" relative="1" as="geometry">
            <mxPoint as="offset" />
          </mxGeometry>
        </mxCell>
        <mxCell id="e8tovBAfOXGoVViqZnMJ-14" value="proceed with checkout&amp;nbsp;" style="edgeStyle=orthogonalEdgeStyle;html=1;verticalAlign=bottom;endArrow=open;endSize=8;strokeColor=#ff0000;rounded=0;entryX=0.315;entryY=0.011;entryDx=0;entryDy=0;entryPerimeter=0;" edge="1" parent="1" source="e8tovBAfOXGoVViqZnMJ-12" target="c0qtm4qSQ-M6oqFo8LH6-6">
          <mxGeometry relative="1" as="geometry">
            <mxPoint x="260" y="353" as="targetPoint" />
            <Array as="points" />
          </mxGeometry>
        </mxCell>
        <mxCell id="c0qtm4qSQ-M6oqFo8LH6-21" style="edgeStyle=orthogonalEdgeStyle;rounded=0;orthogonalLoop=1;jettySize=auto;html=1;exitX=0.25;exitY=0;exitDx=0;exitDy=0;entryX=1;entryY=0;entryDx=0;entryDy=0;" edge="1" parent="1" source="c0qtm4qSQ-M6oqFo8LH6-2" target="e8tovBAfOXGoVViqZnMJ-13">
          <mxGeometry relative="1" as="geometry" />
        </mxCell>
        <mxCell id="c0qtm4qSQ-M6oqFo8LH6-22" value="add product" style="edgeLabel;html=1;align=center;verticalAlign=middle;resizable=0;points=[];" connectable="0" vertex="1" parent="c0qtm4qSQ-M6oqFo8LH6-21">
          <mxGeometry x="0.0533" y="-1" relative="1" as="geometry">
            <mxPoint as="offset" />
          </mxGeometry>
        </mxCell>
        <mxCell id="c0qtm4qSQ-M6oqFo8LH6-2" value="Empty Cart" style="swimlane;fontStyle=1;align=center;verticalAlign=middle;childLayout=stackLayout;horizontal=1;startSize=30;horizontalStack=0;resizeParent=0;resizeLast=1;container=0;fontColor=#000000;collapsible=0;rounded=1;arcSize=30;strokeColor=#ff0000;fillColor=#ffffc0;swimlaneFillColor=#ffffc0;dropTarget=0;" vertex="1" parent="1">
          <mxGeometry x="440" y="180" width="160" height="100" as="geometry" />
        </mxCell>
        <mxCell id="c0qtm4qSQ-M6oqFo8LH6-3" value="entry/ view empty card&lt;br&gt;do/add product&lt;br&gt;exit/cancel request" style="text;html=1;strokeColor=none;fillColor=none;align=center;verticalAlign=middle;spacingLeft=4;spacingRight=4;whiteSpace=wrap;overflow=hidden;rotatable=0;fontColor=#000000;" vertex="1" parent="c0qtm4qSQ-M6oqFo8LH6-2">
          <mxGeometry y="30" width="160" height="70" as="geometry" />
        </mxCell>
        <mxCell id="c0qtm4qSQ-M6oqFo8LH6-5" value="empty the card" style="edgeStyle=orthogonalEdgeStyle;rounded=0;orthogonalLoop=1;jettySize=auto;html=1;exitX=1;exitY=0.5;exitDx=0;exitDy=0;entryX=0;entryY=0.25;entryDx=0;entryDy=0;" edge="1" parent="1" target="c0qtm4qSQ-M6oqFo8LH6-3">
          <mxGeometry x="0.265" y="-13" relative="1" as="geometry">
            <mxPoint x="290" y="235" as="sourcePoint" />
            <mxPoint x="391.5999999999999" y="226.60000000000002" as="targetPoint" />
            <Array as="points">
              <mxPoint x="290" y="220" />
              <mxPoint x="410" y="220" />
            </Array>
            <mxPoint as="offset" />
          </mxGeometry>
        </mxCell>
        <mxCell id="c0qtm4qSQ-M6oqFo8LH6-29" style="edgeStyle=orthogonalEdgeStyle;rounded=0;orthogonalLoop=1;jettySize=auto;html=1;exitX=0.75;exitY=0;exitDx=0;exitDy=0;entryX=0.75;entryY=1;entryDx=0;entryDy=0;" edge="1" parent="1" source="c0qtm4qSQ-M6oqFo8LH6-6" target="e8tovBAfOXGoVViqZnMJ-13">
          <mxGeometry relative="1" as="geometry" />
        </mxCell>
        <mxCell id="c0qtm4qSQ-M6oqFo8LH6-30" value="go back&amp;nbsp;" style="edgeLabel;html=1;align=center;verticalAlign=middle;resizable=0;points=[];" connectable="0" vertex="1" parent="c0qtm4qSQ-M6oqFo8LH6-29">
          <mxGeometry x="-0.192" y="-1" relative="1" as="geometry">
            <mxPoint as="offset" />
          </mxGeometry>
        </mxCell>
        <mxCell id="c0qtm4qSQ-M6oqFo8LH6-6" value="checkoutÂ " style="swimlane;fontStyle=1;align=center;verticalAlign=middle;childLayout=stackLayout;horizontal=1;startSize=30;horizontalStack=0;resizeParent=0;resizeLast=1;container=0;fontColor=#000000;collapsible=0;rounded=1;arcSize=50;strokeColor=#ff0000;fillColor=#ffffc0;swimlaneFillColor=#ffffc0;dropTarget=0;" vertex="1" parent="1">
          <mxGeometry x="130" y="380" width="160" height="160" as="geometry" />
        </mxCell>
        <mxCell id="c0qtm4qSQ-M6oqFo8LH6-7" value="entry/view billing info&lt;br&gt;do/confirm address&lt;br&gt;and confirm payment method&lt;br&gt;exit/cancel order&lt;br&gt;exit/go back&amp;nbsp;&lt;br&gt;exit/confirm order&amp;nbsp;" style="text;html=1;strokeColor=none;fillColor=none;align=center;verticalAlign=middle;spacingLeft=4;spacingRight=4;whiteSpace=wrap;overflow=hidden;rotatable=0;fontColor=#000000;" vertex="1" parent="c0qtm4qSQ-M6oqFo8LH6-6">
          <mxGeometry y="30" width="160" height="130" as="geometry" />
        </mxCell>
        <mxCell id="c0qtm4qSQ-M6oqFo8LH6-14" value="" style="ellipse;html=1;shape=endState;fillColor=#000000;strokeColor=#ff0000;" vertex="1" parent="1">
          <mxGeometry x="450" y="810" width="30" height="30" as="geometry" />
        </mxCell>
        <mxCell id="c0qtm4qSQ-M6oqFo8LH6-15" style="edgeStyle=orthogonalEdgeStyle;rounded=0;orthogonalLoop=1;jettySize=auto;html=1;exitX=0.5;exitY=1;exitDx=0;exitDy=0;" edge="1" parent="1" source="c0qtm4qSQ-M6oqFo8LH6-3" target="c0qtm4qSQ-M6oqFo8LH6-14">
          <mxGeometry relative="1" as="geometry">
            <Array as="points">
              <mxPoint x="520" y="545" />
            </Array>
          </mxGeometry>
        </mxCell>
        <mxCell id="c0qtm4qSQ-M6oqFo8LH6-16" value="cancel request" style="edgeLabel;html=1;align=center;verticalAlign=middle;resizable=0;points=[];" connectable="0" vertex="1" parent="c0qtm4qSQ-M6oqFo8LH6-15">
          <mxGeometry x="0.2154" relative="1" as="geometry">
            <mxPoint as="offset" />
          </mxGeometry>
        </mxCell>
        <mxCell id="c0qtm4qSQ-M6oqFo8LH6-17" style="edgeStyle=orthogonalEdgeStyle;rounded=0;orthogonalLoop=1;jettySize=auto;html=1;exitX=1;exitY=0.5;exitDx=0;exitDy=0;entryX=0.5;entryY=0;entryDx=0;entryDy=0;" edge="1" parent="1" source="c0qtm4qSQ-M6oqFo8LH6-7" target="c0qtm4qSQ-M6oqFo8LH6-14">
          <mxGeometry relative="1" as="geometry">
            <Array as="points">
              <mxPoint x="340" y="440" />
              <mxPoint x="340" y="530" />
            </Array>
          </mxGeometry>
        </mxCell>
        <mxCell id="c0qtm4qSQ-M6oqFo8LH6-18" value="cancel order&amp;nbsp;" style="edgeLabel;html=1;align=center;verticalAlign=middle;resizable=0;points=[];" connectable="0" vertex="1" parent="c0qtm4qSQ-M6oqFo8LH6-17">
          <mxGeometry x="-0.5415" y="3" relative="1" as="geometry">
            <mxPoint as="offset" />
          </mxGeometry>
        </mxCell>
        <mxCell id="c0qtm4qSQ-M6oqFo8LH6-19" style="edgeStyle=orthogonalEdgeStyle;rounded=0;orthogonalLoop=1;jettySize=auto;html=1;exitX=1;exitY=0.75;exitDx=0;exitDy=0;entryX=0.5;entryY=0;entryDx=0;entryDy=0;" edge="1" parent="1" source="e8tovBAfOXGoVViqZnMJ-13" target="c0qtm4qSQ-M6oqFo8LH6-14">
          <mxGeometry relative="1" as="geometry">
            <Array as="points">
              <mxPoint x="290" y="370" />
              <mxPoint x="410" y="370" />
              <mxPoint x="410" y="530" />
            </Array>
          </mxGeometry>
        </mxCell>
        <mxCell id="c0qtm4qSQ-M6oqFo8LH6-20" value="cancel order&amp;nbsp;" style="edgeLabel;html=1;align=center;verticalAlign=middle;resizable=0;points=[];" connectable="0" vertex="1" parent="c0qtm4qSQ-M6oqFo8LH6-19">
          <mxGeometry x="-0.1684" y="2" relative="1" as="geometry">
            <mxPoint as="offset" />
          </mxGeometry>
        </mxCell>
        <mxCell id="c0qtm4qSQ-M6oqFo8LH6-24" value="confirmed orderÂ " style="swimlane;fontStyle=1;align=center;verticalAlign=middle;childLayout=stackLayout;horizontal=1;startSize=30;horizontalStack=0;resizeParent=0;resizeLast=1;container=0;fontColor=#000000;collapsible=0;rounded=1;arcSize=30;strokeColor=#ff0000;fillColor=#ffffc0;swimlaneFillColor=#ffffc0;dropTarget=0;" vertex="1" parent="1">
          <mxGeometry x="135" y="590" width="150" height="120" as="geometry" />
        </mxCell>
        <mxCell id="c0qtm4qSQ-M6oqFo8LH6-25" value="entry/ view order information&lt;br&gt;do/download order information&lt;br&gt;do/check shipping details&amp;nbsp;&lt;br&gt;exit/exit&amp;nbsp;" style="text;html=1;strokeColor=none;fillColor=none;align=center;verticalAlign=middle;spacingLeft=4;spacingRight=4;whiteSpace=wrap;overflow=hidden;rotatable=0;fontColor=#000000;" vertex="1" parent="c0qtm4qSQ-M6oqFo8LH6-24">
          <mxGeometry y="30" width="150" height="90" as="geometry" />
        </mxCell>
        <mxCell id="c0qtm4qSQ-M6oqFo8LH6-27" value="confirm order&amp;nbsp;" style="edgeStyle=orthogonalEdgeStyle;rounded=0;orthogonalLoop=1;jettySize=auto;html=1;exitX=0.5;exitY=1;exitDx=0;exitDy=0;" edge="1" parent="1" source="c0qtm4qSQ-M6oqFo8LH6-7" target="c0qtm4qSQ-M6oqFo8LH6-24">
          <mxGeometry relative="1" as="geometry" />
        </mxCell>
        <mxCell id="c0qtm4qSQ-M6oqFo8LH6-28" value="exit&amp;nbsp;" style="edgeStyle=orthogonalEdgeStyle;rounded=0;orthogonalLoop=1;jettySize=auto;html=1;exitX=1;exitY=0.5;exitDx=0;exitDy=0;" edge="1" parent="1" source="c0qtm4qSQ-M6oqFo8LH6-25" target="c0qtm4qSQ-M6oqFo8LH6-14">
          <mxGeometry relative="1" as="geometry" />
        </mxCell>
        <mxCell id="c0qtm4qSQ-M6oqFo8LH6-31" value="View Downloaded orderÂ " style="swimlane;fontStyle=1;align=center;verticalAlign=middle;childLayout=stackLayout;horizontal=1;startSize=30;horizontalStack=0;resizeParent=0;resizeLast=1;container=0;fontColor=#000000;collapsible=0;rounded=1;arcSize=30;strokeColor=#ff0000;fillColor=#ffffc0;swimlaneFillColor=#ffffc0;dropTarget=0;" vertex="1" parent="1">
          <mxGeometry x="-70" y="640" width="160" height="60" as="geometry" />
        </mxCell>
        <mxCell id="c0qtm4qSQ-M6oqFo8LH6-32" value="entry/ view pdf version&lt;br&gt;exit/close&amp;nbsp;" style="text;html=1;strokeColor=none;fillColor=none;align=center;verticalAlign=middle;spacingLeft=4;spacingRight=4;whiteSpace=wrap;overflow=hidden;rotatable=0;fontColor=#000000;" vertex="1" parent="c0qtm4qSQ-M6oqFo8LH6-31">
          <mxGeometry y="30" width="160" height="30" as="geometry" />
        </mxCell>
        <mxCell id="c0qtm4qSQ-M6oqFo8LH6-33" value="" style="edgeStyle=orthogonalEdgeStyle;html=1;verticalAlign=bottom;endArrow=open;endSize=8;strokeColor=#ff0000;rounded=0;entryX=0.5;entryY=1;entryDx=0;entryDy=0;" edge="1" parent="1" source="c0qtm4qSQ-M6oqFo8LH6-31" target="c0qtm4qSQ-M6oqFo8LH6-14">
          <mxGeometry relative="1" as="geometry">
            <mxPoint x="10" y="760" as="targetPoint" />
            <Array as="points">
              <mxPoint x="10" y="780" />
              <mxPoint x="445" y="780" />
            </Array>
          </mxGeometry>
        </mxCell>
        <mxCell id="c0qtm4qSQ-M6oqFo8LH6-34" style="edgeStyle=orthogonalEdgeStyle;rounded=0;orthogonalLoop=1;jettySize=auto;html=1;exitX=0;exitY=0.25;exitDx=0;exitDy=0;entryX=0.46;entryY=-0.01;entryDx=0;entryDy=0;entryPerimeter=0;" edge="1" parent="1" source="c0qtm4qSQ-M6oqFo8LH6-25" target="c0qtm4qSQ-M6oqFo8LH6-31">
          <mxGeometry relative="1" as="geometry" />
        </mxCell>
        <mxCell id="c0qtm4qSQ-M6oqFo8LH6-35" value="download order details" style="edgeLabel;html=1;align=center;verticalAlign=middle;resizable=0;points=[];" connectable="0" vertex="1" parent="c0qtm4qSQ-M6oqFo8LH6-34">
          <mxGeometry x="0.2683" y="-3" relative="1" as="geometry">
            <mxPoint as="offset" />
          </mxGeometry>
        </mxCell>
      </root>
    </mxGraphModel>
  </diagram>
</mxfile>
